<svg xmlns="http://www.w3.org/2000/svg" xmlns:xlink="http://www.w3.org/1999/xlink" width="500" zoomAndPan="magnify" viewBox="0 0 375 374.999991" height="500" preserveAspectRatio="xMidYMid meet" version="1.2"><g id="8268277e33"><path style=" stroke:none;fill-rule:nonzero;fill:#fdfdfd;fill-opacity:1;" d="M 216.796875 99.027344 C 217.71875 99.238281 218.652344 99.390625 219.585938 99.554688 C 221.742188 99.945312 223.816406 100.515625 225.917969 101.152344 C 227.273438 101.546875 228.640625 101.90625 230.011719 102.25 C 231.609375 102.664062 232.984375 103.199219 234.429688 103.988281 L 235.203125 104.246094 C 236.277344 104.605469 237.296875 105.039062 238.332031 105.496094 L 238.933594 105.761719 C 240.277344 106.355469 241.605469 106.988281 242.910156 107.664062 C 243.570312 107.992188 244.242188 108.261719 244.925781 108.527344 L 244.925781 109.097656 L 245.5625 109.191406 C 246.386719 109.390625 246.835938 109.648438 247.515625 110.144531 C 248.449219 110.792969 249.417969 111.375 250.425781 111.898438 C 252.097656 112.792969 253.699219 113.816406 255.140625 115.054688 L 255.140625 115.621094 L 255.992188 115.621094 L 255.992188 116.191406 L 256.472656 116.421875 C 257.1875 116.789062 257.878906 117.160156 258.546875 117.609375 L 258.546875 118.175781 L 259.019531 118.363281 C 259.894531 118.863281 260.535156 119.546875 261.226562 120.269531 C 262.164062 121.246094 263.164062 122.15625 264.222656 123 C 264.570312 123.363281 264.90625 123.734375 265.234375 124.117188 L 265.742188 124.710938 C 266.125 125.171875 266.496094 125.632812 266.863281 126.105469 C 267.296875 126.714844 267.296875 126.714844 267.910156 126.972656 L 267.910156 127.539062 L 268.480469 127.539062 L 268.480469 128.390625 L 269.046875 128.390625 C 269.4375 128.851562 269.816406 129.324219 270.179688 129.808594 L 270.820312 130.574219 L 271.316406 131.230469 L 271.316406 131.796875 L 271.882812 131.796875 C 272.652344 132.429688 273.117188 133.195312 273.585938 134.066406 L 273.585938 134.632812 L 274.152344 134.632812 L 274.152344 135.484375 L 274.722656 135.484375 C 275.171875 136.109375 275.171875 136.109375 275.679688 136.9375 C 276.234375 137.839844 276.785156 138.734375 277.398438 139.597656 L 277.84375 140.308594 L 277.84375 141.160156 L 278.410156 141.160156 C 278.871094 141.847656 279.308594 142.550781 279.722656 143.269531 L 280.101562 143.921875 C 280.980469 145.464844 281.800781 147.039062 282.558594 148.644531 L 282.855469 149.261719 C 283.246094 150.109375 283.515625 150.714844 283.515625 151.660156 L 284.085938 151.660156 L 284.417969 152.5625 L 284.863281 153.769531 L 285.101562 154.40625 C 285.492188 155.453125 285.898438 156.472656 286.390625 157.476562 C 287.085938 158.976562 287.417969 160.59375 287.792969 162.195312 C 288.117188 163.535156 288.5 164.851562 288.890625 166.175781 C 289.609375 168.726562 290.097656 171.289062 290.523438 173.90625 L 290.660156 174.726562 L 290.777344 175.464844 C 290.871094 176.074219 290.871094 176.074219 291.179688 176.628906 C 291.359375 177.910156 291.472656 179.199219 291.59375 180.484375 L 291.652344 181.074219 C 291.9375 184.058594 292.144531 187.042969 292.269531 190.039062 L 292.292969 190.613281 C 292.359375 192.160156 292.417969 193.703125 292.476562 195.25 C 292.753906 202.570312 292.753906 202.570312 293.730469 209.828125 L 294.015625 210.109375 C 294.109375 210.5 294.1875 210.894531 294.261719 211.289062 L 294.402344 212.027344 C 294.5 212.539062 294.59375 213.046875 294.6875 213.558594 C 294.960938 215.003906 295.3125 216.371094 295.800781 217.761719 C 296.082031 218.566406 296.3125 219.382812 296.550781 220.203125 C 296.9375 221.460938 297.371094 222.59375 297.992188 223.75 C 298.300781 224.351562 298.542969 224.960938 298.785156 225.59375 C 299.984375 228.640625 301.453125 231.554688 303 234.4375 C 303.664062 235.675781 304.304688 236.921875 304.921875 238.183594 C 305.714844 239.785156 306.558594 241.355469 307.421875 242.917969 L 307.789062 243.582031 C 308.347656 244.585938 308.917969 245.519531 309.621094 246.429688 C 309.828125 246.894531 310.027344 247.359375 310.21875 247.828125 C 310.636719 248.792969 311.128906 249.71875 311.613281 250.648438 C 311.890625 251.253906 311.890625 251.253906 311.890625 251.824219 L 312.460938 251.824219 L 312.667969 252.257812 C 313.140625 253.226562 313.613281 254.152344 314.234375 255.03125 L 314.730469 255.796875 L 314.730469 256.644531 L 315.296875 256.644531 L 315.296875 258.066406 L 312.460938 257.496094 L 312.460938 256.929688 C 312.296875 256.878906 312.128906 256.828125 311.960938 256.773438 C 310.644531 256.351562 309.425781 255.886719 308.203125 255.226562 L 308.203125 254.660156 L 307.636719 254.589844 C 306.503906 254.304688 305.539062 253.789062 304.515625 253.242188 L 304.515625 252.671875 L 303.886719 252.570312 C 303.109375 252.394531 302.496094 252.148438 301.785156 251.800781 L 301.039062 251.441406 C 300.78125 251.316406 300.523438 251.191406 300.257812 251.058594 C 299.722656 250.800781 299.1875 250.542969 298.652344 250.285156 L 297.867188 249.902344 C 294.824219 248.4375 291.757812 247.097656 288.59375 245.914062 C 287.773438 245.578125 287.773438 245.578125 286.921875 245.011719 C 286.539062 244.886719 286.15625 244.765625 285.769531 244.65625 C 284.234375 244.164062 282.808594 243.445312 281.53125 242.457031 C 281.117188 241.808594 280.96875 241.363281 280.902344 240.589844 L 280.914062 239.75 L 280.921875 238.796875 L 280.9375 237.761719 L 280.957031 235.582031 C 280.96875 234.441406 280.980469 233.296875 280.996094 232.15625 C 281.125 226.324219 281.125 226.324219 280.113281 220.609375 L 279.9375 219.898438 C 279.789062 219.316406 279.628906 218.738281 279.457031 218.164062 C 279.398438 217.964844 279.335938 217.765625 279.277344 217.558594 C 278.6875 215.652344 277.886719 213.875 276.992188 212.097656 L 276.671875 211.4375 C 276.222656 210.515625 275.738281 209.613281 275.21875 208.726562 C 274.722656 207.839844 274.722656 207.839844 274.722656 207.273438 L 274.152344 207.273438 L 274.152344 206.421875 L 273.585938 206.421875 L 273.300781 205.289062 L 272.734375 205.289062 C 272.273438 204.753906 272.273438 204.753906 271.882812 204.152344 L 271.882812 203.585938 L 271.316406 203.585938 C 270.875 203.136719 270.875 203.136719 270.375 202.539062 C 269.597656 201.621094 268.773438 200.738281 267.910156 199.894531 L 267.167969 199.132812 C 266.5 198.445312 266.5 198.445312 265.640625 197.910156 L 265.640625 197.34375 L 265.175781 197.128906 C 264.355469 196.695312 263.628906 196.179688 262.875 195.640625 L 262.027344 195.035156 L 261.386719 194.503906 L 261.386719 193.9375 L 259.964844 193.652344 L 259.964844 193.085938 C 259.214844 192.78125 258.464844 192.492188 257.695312 192.234375 L 257.695312 191.667969 L 256.683594 191.367188 C 255.417969 190.949219 254.230469 190.402344 253.03125 189.824219 C 251.625 189.148438 250.257812 188.570312 248.742188 188.179688 C 248.136719 188.003906 247.570312 187.796875 246.984375 187.566406 C 245.796875 187.117188 244.605469 186.816406 243.367188 186.542969 L 242.152344 186.265625 L 241.550781 186.132812 C 240.960938 185.996094 240.378906 185.839844 239.796875 185.683594 C 238.742188 185.417969 237.714844 185.320312 236.628906 185.265625 C 234.808594 185.167969 234.808594 185.167969 234.203125 184.996094 C 233.382812 184.8125 232.609375 184.820312 231.769531 184.820312 L 226.472656 184.820312 C 225.753906 184.851562 225.183594 184.949219 224.496094 185.140625 C 223.851562 185.183594 223.210938 185.21875 222.5625 185.246094 C 217.46875 185.546875 212.117188 186.980469 207.472656 189.113281 L 206.765625 189.4375 C 204.878906 190.34375 203.121094 191.414062 201.476562 192.710938 L 200.945312 193.085938 L 200.378906 193.085938 L 200.378906 193.652344 C 199.902344 194.113281 199.902344 194.113281 199.277344 194.628906 C 198.546875 195.238281 198.078125 195.6875 197.542969 196.492188 L 196.972656 196.492188 L 196.707031 197.164062 C 196.40625 197.910156 196.40625 197.910156 196.121094 198.476562 L 195.554688 198.476562 L 195.554688 199.328125 L 194.988281 199.328125 L 194.757812 200.054688 C 194.417969 201.03125 194.417969 201.03125 193.976562 202.007812 C 193.566406 203.023438 193.414062 203.921875 193.285156 205.003906 L 193 205.289062 C 192.925781 206.585938 192.925781 207.882812 192.917969 209.179688 C 192.914062 209.617188 192.910156 210.050781 192.898438 210.488281 C 192.824219 214.386719 193.300781 217.96875 195.039062 221.527344 C 195.328125 222.152344 195.46875 222.765625 195.554688 223.449219 L 196.121094 223.449219 L 196.53125 224.261719 C 197.390625 225.777344 198.589844 227.042969 199.8125 228.269531 L 200.378906 228.554688 L 200.378906 229.121094 L 201 229.351562 C 201.796875 229.691406 202.503906 230.050781 203.214844 230.542969 L 203.214844 231.109375 L 203.835938 231.351562 C 204.585938 231.65625 205.308594 231.988281 206.035156 232.332031 C 208.304688 233.371094 210.679688 234.371094 213.148438 234.796875 L 213.148438 235.363281 L 214.105469 235.453125 C 215.546875 235.632812 216.890625 236.058594 218.273438 236.5 C 219.875 237.011719 221.402344 237.453125 223.078125 237.636719 L 223.078125 238.203125 L 223.558594 238.234375 C 225.136719 238.371094 226.457031 238.691406 227.902344 239.335938 L 228.527344 239.617188 C 229.675781 240.15625 229.675781 240.15625 230.171875 240.472656 C 230.738281 241.324219 230.738281 241.324219 230.804688 242.101562 L 230.792969 242.992188 L 230.789062 243.875 C 230.738281 244.730469 230.738281 244.730469 230.605469 245.371094 C 230.375 246.566406 230.363281 247.769531 230.3125 248.984375 C 230.292969 249.488281 230.273438 249.988281 230.253906 250.492188 L 230.226562 251.164062 C 230.171875 251.824219 230.171875 251.824219 230.035156 252.496094 C 229.710938 254.140625 229.6875 255.84375 229.585938 257.515625 L 229.550781 258.148438 C 229.113281 265.558594 228.640625 273.722656 230.171875 281.046875 C 230.214844 281.710938 230.25 282.371094 230.277344 283.035156 C 230.382812 284.984375 230.605469 286.902344 230.882812 288.835938 L 230.992188 289.632812 C 231.132812 290.59375 231.132812 290.59375 231.308594 291.546875 L 231.589844 291.832031 C 231.683594 292.386719 231.765625 292.941406 231.839844 293.5 C 232.0625 295.011719 232.382812 296.441406 232.808594 297.90625 C 232.992188 298.582031 233.132812 299.246094 233.257812 299.9375 C 233.566406 301.566406 234.03125 303.148438 234.496094 304.738281 C 234.863281 306.019531 235.125 307.25 235.28125 308.574219 L 235.847656 308.574219 C 235.992188 309.015625 236.132812 309.457031 236.273438 309.902344 L 236.511719 310.652344 C 236.699219 311.410156 236.730469 312.050781 236.699219 312.828125 L 237.265625 312.828125 L 237.433594 313.417969 L 237.65625 314.195312 L 237.875 314.960938 C 238.105469 315.722656 238.105469 315.722656 238.683594 316.515625 C 238.851562 316.9375 239.003906 317.363281 239.144531 317.792969 C 239.21875 318.015625 239.292969 318.234375 239.371094 318.460938 C 239.535156 319.070312 239.535156 319.070312 239.535156 319.921875 L 240.105469 319.921875 L 240.105469 321.339844 L 240.671875 321.339844 L 240.992188 322.171875 C 241.742188 324.089844 242.519531 325.953125 243.46875 327.78125 C 243.789062 328.433594 244.050781 329.085938 244.308594 329.765625 C 244.941406 331.402344 245.785156 332.921875 246.621094 334.460938 C 247.664062 336.378906 248.679688 338.3125 249.46875 340.351562 L 250.035156 340.351562 C 250.886719 341.984375 250.886719 341.984375 250.886719 342.621094 L 251.453125 342.621094 C 251.914062 343.277344 251.914062 343.277344 252.304688 344.042969 L 252.304688 344.890625 L 252.871094 344.890625 L 253.367188 345.777344 C 253.765625 346.476562 254.191406 347.15625 254.644531 347.820312 L 255.140625 348.582031 L 255.140625 349.148438 L 255.710938 349.148438 C 256.171875 349.824219 256.171875 349.824219 256.5625 350.566406 L 256.5625 351.136719 L 257.128906 351.136719 L 257.414062 352.554688 L 257.980469 352.554688 C 259.078125 354.433594 259.078125 354.433594 259.398438 355.390625 L 259.964844 355.390625 C 260.675781 356.558594 261.160156 357.433594 261.386719 358.796875 C 259.363281 358.527344 257.515625 358.132812 255.617188 357.378906 C 254.714844 357.039062 253.800781 356.78125 252.871094 356.527344 C 248.875 355.402344 248.875 355.402344 246.90625 354.726562 C 246.066406 354.445312 245.214844 354.207031 244.359375 353.972656 L 244.359375 353.40625 L 243.484375 353.304688 C 240.792969 352.863281 238.246094 351.652344 235.746094 350.585938 C 234.84375 350.222656 233.953125 349.953125 233.011719 349.714844 L 233.011719 349.148438 L 232.394531 349.042969 C 229.890625 348.488281 227.570312 347.152344 225.296875 345.996094 C 223.832031 345.253906 222.351562 344.605469 220.808594 344.042969 L 220.808594 343.472656 L 220.1875 343.367188 C 219.402344 343.191406 218.710938 342.9375 217.972656 342.621094 L 217.972656 342.054688 L 216.960938 341.789062 C 215.375 341.269531 214.023438 340.417969 212.621094 339.539062 C 211.855469 339.0625 211.171875 338.652344 210.308594 338.367188 L 210.308594 337.796875 L 209.726562 337.585938 C 207.996094 336.851562 206.484375 335.828125 204.949219 334.753906 C 204.363281 334.402344 203.886719 334.234375 203.214844 334.109375 L 203.214844 333.542969 L 202.542969 333.277344 C 201.796875 332.976562 201.796875 332.976562 201.230469 332.691406 L 201.230469 332.125 L 200.734375 332.015625 C 200.089844 331.839844 199.546875 331.585938 198.960938 331.273438 L 198.960938 330.703125 L 198.285156 330.4375 C 197.542969 330.136719 197.542969 330.136719 196.972656 329.855469 L 196.972656 329.285156 L 196.386719 329.082031 C 195.382812 328.644531 194.515625 328.066406 193.621094 327.441406 L 193.109375 327.09375 C 192.683594 326.800781 192.273438 326.484375 191.867188 326.164062 L 191.867188 325.597656 L 191.402344 325.515625 C 190.53125 325.253906 189.863281 324.824219 189.097656 324.339844 L 188.253906 323.808594 L 187.609375 323.328125 L 187.609375 322.761719 L 186.757812 322.761719 L 186.757812 322.191406 L 186.175781 322 C 185.113281 321.523438 184.25 320.878906 183.316406 320.1875 C 182.003906 319.191406 182.003906 319.191406 180.515625 318.503906 L 180.515625 317.9375 L 179.929688 317.742188 C 179.042969 317.34375 178.347656 316.855469 177.578125 316.269531 C 177.078125 315.894531 177.078125 315.894531 176.261719 315.667969 L 176.261719 315.097656 L 175.675781 314.902344 C 174.785156 314.507812 174.09375 314.015625 173.324219 313.429688 C 172.820312 313.058594 172.820312 313.058594 172.003906 312.828125 L 172.003906 312.261719 L 171.417969 312.066406 C 170.722656 311.757812 170.246094 311.464844 169.644531 311.019531 C 168.597656 310.242188 167.503906 309.699219 166.328125 309.140625 L 166.328125 308.574219 L 165.851562 308.476562 C 163.613281 307.835938 161.550781 306.28125 159.636719 305.003906 C 159.011719 304.632812 158.523438 304.441406 157.816406 304.316406 L 157.816406 303.75 L 157.238281 303.53125 C 156.230469 303.113281 155.261719 302.628906 154.285156 302.136719 L 153.6875 301.832031 C 152.886719 301.429688 152.089844 301.027344 151.289062 300.625 C 150.933594 300.445312 150.574219 300.265625 150.21875 300.085938 C 149.742188 299.84375 149.265625 299.601562 148.789062 299.363281 C 147.433594 298.707031 146.050781 298.117188 144.640625 297.59375 L 143.628906 297.222656 L 143.628906 296.65625 L 142.882812 296.554688 C 141.917969 296.371094 141.136719 296.078125 140.242188 295.679688 C 139.015625 295.152344 137.832031 294.710938 136.535156 294.386719 L 136.535156 293.816406 L 135.679688 293.726562 C 134.492188 293.554688 133.433594 293.164062 132.3125 292.734375 C 130.054688 291.90625 127.785156 291.328125 125.4375 290.816406 C 124.679688 290.648438 123.929688 290.449219 123.179688 290.253906 C 119.878906 289.433594 116.703125 288.90625 113.300781 288.792969 C 111.613281 288.734375 111.613281 288.734375 110.996094 288.425781 C 110.515625 288.386719 110.027344 288.363281 109.542969 288.347656 L 108.667969 288.3125 L 107.753906 288.285156 C 107.15625 288.265625 106.558594 288.242188 105.960938 288.222656 L 105.15625 288.195312 C 104.472656 288.140625 104.472656 288.140625 103.621094 287.859375 C 103.851562 287.308594 103.851562 287.308594 104.1875 286.722656 L 105.039062 286.441406 L 105.039062 285.871094 C 105.570312 285.410156 105.570312 285.410156 106.171875 285.019531 L 106.742188 285.019531 L 106.742188 284.453125 C 107.414062 283.992188 107.414062 283.992188 108.160156 283.601562 L 108.726562 283.601562 L 108.726562 283.035156 C 109.257812 282.574219 109.257812 282.574219 109.863281 282.183594 L 110.429688 282.183594 L 110.429688 281.617188 C 111.105469 281.15625 111.105469 281.15625 111.847656 280.765625 L 112.417969 280.765625 L 112.417969 280.199219 C 112.898438 279.75 113.394531 279.316406 113.90625 278.902344 L 114.742188 278.210938 C 115.4375 277.714844 115.84375 277.472656 116.671875 277.359375 L 116.671875 276.792969 C 117.132812 276.390625 117.132812 276.390625 117.769531 275.929688 L 118.460938 275.429688 L 119.191406 274.914062 L 119.914062 274.386719 C 121.238281 273.4375 121.238281 273.4375 121.78125 273.105469 L 122.347656 273.105469 L 122.347656 272.535156 L 123.480469 272.253906 L 123.480469 271.683594 L 124.332031 271.683594 L 124.617188 270.832031 L 125.183594 270.832031 L 125.183594 270.265625 C 125.859375 269.804688 125.859375 269.804688 126.605469 269.414062 L 127.171875 269.414062 L 127.171875 268.847656 L 128.023438 268.847656 L 128.023438 268.28125 C 128.5 267.851562 128.5 267.851562 129.121094 267.394531 L 129.742188 266.929688 L 130.292969 266.578125 L 130.859375 266.578125 L 130.859375 266.011719 C 131.355469 265.601562 131.863281 265.210938 132.386719 264.839844 L 133.242188 264.214844 L 133.980469 263.738281 L 134.546875 263.738281 L 134.546875 263.171875 C 135.222656 262.710938 135.222656 262.710938 135.96875 262.320312 L 136.535156 262.320312 L 136.535156 261.753906 C 137.019531 261.324219 137.515625 260.910156 138.023438 260.511719 C 138.820312 259.882812 139.582031 259.277344 140.289062 258.550781 L 140.792969 258.066406 L 141.359375 258.066406 L 141.359375 257.496094 C 142.175781 256.753906 142.175781 256.753906 143.0625 256.078125 L 143.628906 256.078125 L 143.628906 255.511719 C 144.019531 255.050781 144.019531 255.050781 144.480469 254.660156 L 145.046875 254.660156 L 145.046875 254.09375 C 145.4375 253.632812 145.4375 253.632812 145.898438 253.242188 L 146.464844 253.242188 L 146.464844 252.671875 C 146.855469 252.210938 146.855469 252.210938 147.316406 251.824219 L 147.886719 251.824219 L 147.886719 251.253906 C 148.273438 250.792969 148.273438 250.792969 148.734375 250.402344 L 149.304688 250.402344 L 149.535156 249.855469 L 149.871094 249.269531 L 150.722656 248.984375 L 150.96875 248.347656 C 151.367188 247.375 151.960938 246.875 152.707031 246.148438 L 153.1875 245.351562 L 153.558594 244.730469 L 154.128906 244.730469 L 154.359375 244.109375 C 154.695312 243.3125 155.054688 242.605469 155.546875 241.890625 L 156.113281 241.890625 L 156.398438 240.472656 L 156.964844 240.472656 L 156.398438 239.054688 C 155.113281 239.378906 154.117188 239.785156 152.992188 240.472656 L 152.140625 240.472656 L 152.140625 241.039062 L 150.722656 241.324219 L 150.722656 241.890625 C 150.046875 242.351562 150.046875 242.351562 149.304688 242.742188 L 148.734375 242.742188 L 148.734375 243.308594 C 147.105469 244.160156 147.105469 244.160156 146.464844 244.160156 L 146.464844 244.730469 L 145.046875 245.011719 L 145.046875 245.578125 L 144.195312 245.578125 L 144.195312 246.148438 L 143.757812 246.355469 C 142.792969 246.828125 141.867188 247.300781 140.984375 247.921875 L 140.222656 248.417969 L 139.371094 248.417969 L 139.371094 248.984375 L 138.613281 249.359375 C 136.675781 250.320312 134.761719 251.304688 132.878906 252.371094 C 132.277344 252.671875 132.277344 252.671875 131.710938 252.671875 L 131.710938 253.242188 L 131.230469 253.449219 C 129.921875 254.023438 128.640625 254.628906 127.378906 255.304688 C 126.886719 255.511719 126.886719 255.511719 126.035156 255.511719 L 126.035156 256.078125 C 124.355469 256.96875 122.675781 257.714844 120.882812 258.34375 C 119.765625 258.746094 118.683594 259.207031 117.589844 259.667969 C 115.015625 260.746094 112.4375 261.785156 109.777344 262.640625 C 109.292969 262.796875 108.804688 262.964844 108.324219 263.136719 C 106.839844 263.667969 105.476562 263.898438 103.902344 264.023438 L 103.902344 264.589844 L 103.1875 264.707031 L 102.253906 264.859375 L 101.328125 265.007812 C 100.484375 265.140625 100.484375 265.140625 99.648438 265.441406 C 99.203125 265.460938 98.761719 265.46875 98.316406 265.460938 L 97.621094 265.453125 L 97.09375 265.441406 C 97.832031 264.074219 98.585938 262.898438 99.648438 261.753906 L 100.214844 261.753906 L 101.066406 260.050781 L 101.632812 260.050781 L 101.917969 258.917969 L 102.484375 258.917969 L 102.566406 258.445312 C 102.824219 257.597656 103.253906 256.972656 103.742188 256.238281 C 104.394531 255.261719 104.921875 254.347656 105.324219 253.242188 L 105.890625 253.242188 L 105.992188 252.628906 C 106.183594 251.777344 106.476562 251.058594 106.828125 250.261719 C 107.601562 248.453125 108.179688 246.613281 108.726562 244.730469 L 109.0625 243.683594 C 109.316406 242.660156 109.410156 241.679688 109.5 240.632812 C 109.574219 239.957031 109.695312 239.324219 109.84375 238.664062 C 110.792969 234.085938 110.816406 229.378906 110.800781 224.722656 L 110.800781 223.828125 C 110.792969 218.910156 110.703125 213.945312 109.714844 209.109375 C 109.589844 208.460938 109.507812 207.832031 109.445312 207.175781 L 109.378906 206.453125 L 109.3125 205.675781 L 109.238281 204.863281 C 109.011719 202.265625 108.820312 199.664062 108.640625 197.0625 L 108.574219 196.128906 L 108.519531 195.300781 C 108.457031 194.507812 108.457031 194.507812 108.296875 193.734375 C 108.109375 192.453125 108.109375 191.191406 108.101562 189.894531 L 108.097656 189.042969 C 108.089844 188.132812 108.089844 187.222656 108.089844 186.3125 L 108.085938 185.375 C 108.089844 180.980469 108.195312 176.703125 109.011719 172.371094 L 109.21875 171.183594 C 109.855469 167.757812 110.664062 164.304688 111.847656 161.023438 L 112.167969 160.105469 C 112.832031 158.203125 113.542969 156.332031 114.332031 154.476562 C 114.570312 153.917969 114.800781 153.359375 115.03125 152.796875 C 115.753906 151.019531 116.554688 149.308594 117.425781 147.597656 C 117.734375 146.988281 118.019531 146.367188 118.285156 145.734375 C 118.65625 144.851562 119.074219 144 119.511719 143.144531 L 120.078125 143.144531 L 120.167969 142.667969 C 120.402344 141.875 120.773438 141.273438 121.210938 140.574219 C 121.691406 139.808594 122.0625 139.183594 122.347656 138.324219 L 122.914062 138.324219 C 123.21875 137.570312 123.507812 136.824219 123.765625 136.050781 L 124.332031 136.050781 L 124.601562 135.378906 C 124.902344 134.632812 124.902344 134.632812 125.183594 134.066406 L 125.753906 134.066406 L 125.964844 133.445312 C 126.355469 132.570312 126.808594 131.933594 127.453125 131.230469 L 128.023438 131.230469 L 128.253906 130.574219 C 128.574219 129.839844 128.820312 129.449219 129.441406 128.957031 L 130.007812 128.957031 L 130.242188 128.453125 C 131.058594 126.917969 132.429688 125.585938 133.699219 124.417969 L 134.546875 124.136719 L 134.546875 123.566406 C 134.960938 123.140625 134.960938 123.140625 135.507812 122.679688 L 136.042969 122.21875 L 136.535156 121.863281 L 137.101562 121.863281 L 137.101562 121.296875 C 137.917969 120.550781 137.917969 120.550781 138.804688 119.878906 L 139.371094 119.878906 L 139.371094 119.3125 C 139.847656 118.882812 139.847656 118.882812 140.472656 118.425781 L 141.089844 117.960938 L 141.640625 117.609375 L 142.210938 117.609375 L 142.210938 117.042969 C 142.882812 116.582031 142.882812 116.582031 143.628906 116.191406 L 144.195312 116.191406 L 144.195312 115.621094 L 145.046875 115.621094 L 145.046875 115.054688 C 145.691406 114.574219 145.691406 114.574219 146.535156 114.042969 C 146.8125 113.867188 147.089844 113.691406 147.375 113.511719 C 148.046875 113.136719 148.554688 112.914062 149.304688 112.785156 L 149.304688 112.21875 L 150.722656 111.933594 L 150.722656 111.367188 C 151.128906 111.128906 151.535156 110.890625 151.945312 110.65625 L 152.632812 110.257812 C 153.277344 109.949219 153.277344 109.949219 154.128906 109.949219 L 154.128906 109.378906 C 158.160156 107.179688 162.238281 105.144531 166.613281 103.703125 L 167.835938 103.296875 C 170.496094 102.410156 170.496094 102.410156 171.132812 102.199219 C 171.640625 102.03125 172.144531 101.855469 172.648438 101.683594 C 173.351562 101.457031 174.027344 101.296875 174.753906 101.167969 C 175.75 100.980469 176.714844 100.746094 177.691406 100.460938 C 179.425781 99.980469 181.167969 99.6875 182.945312 99.414062 C 183.550781 99.320312 184.152344 99.222656 184.753906 99.128906 L 185.550781 99.003906 C 186.199219 98.910156 186.199219 98.910156 186.757812 98.597656 C 196.089844 97.246094 207.585938 96.863281 216.796875 99.027344 M 203.128906 20.492188 L 204.261719 20.488281 C 204.671875 20.488281 205.078125 20.492188 205.484375 20.496094 L 206.117188 20.496094 C 212.542969 20.523438 219.015625 20.777344 225.402344 21.507812 C 227.457031 21.738281 229.515625 21.8125 231.582031 21.863281 C 233.0625 21.90625 234.53125 22.085938 235.980469 22.40625 C 237.261719 22.667969 238.558594 22.804688 239.855469 22.960938 C 242.171875 23.25 244.457031 23.605469 246.746094 24.058594 C 248.03125 24.304688 249.316406 24.496094 250.613281 24.671875 C 251.453125 24.824219 251.453125 24.824219 252.417969 25.097656 C 253.464844 25.398438 254.496094 25.59375 255.566406 25.78125 C 257.144531 26.058594 258.707031 26.414062 260.25 26.84375 C 261.34375 27.148438 262.398438 27.433594 263.53125 27.554688 C 264.507812 27.660156 264.507812 27.660156 265.28125 27.925781 C 266.65625 28.375 268.0625 28.582031 269.484375 28.828125 C 270.464844 29.078125 270.464844 29.078125 271.160156 29.460938 L 271.601562 29.929688 C 271.777344 30.816406 271.570312 31.625 271.316406 32.484375 C 270.917969 33.257812 270.484375 33.980469 270.003906 34.707031 C 269.570312 35.332031 269.570312 35.332031 269.328125 36.171875 L 268.761719 36.171875 L 268.480469 37.589844 L 267.910156 37.589844 L 267.8125 38.222656 C 267.625 39.023438 267.359375 39.566406 266.933594 40.269531 C 266.371094 41.246094 265.949219 42.175781 265.640625 43.265625 L 265.074219 43.265625 L 264.789062 44.292969 C 264.191406 46.097656 263.199219 47.675781 262.242188 49.300781 C 261.808594 50.039062 261.390625 50.78125 260.976562 51.53125 L 260.570312 52.257812 C 260.277344 52.859375 260.097656 53.394531 259.964844 54.046875 L 259.398438 54.046875 L 259.253906 54.546875 C 258.808594 55.976562 258.273438 57.066406 257.414062 58.304688 C 257.113281 58.960938 256.832031 59.625 256.5625 60.292969 C 256.402344 60.664062 256.242188 61.035156 256.082031 61.410156 L 255.710938 62.277344 L 255.140625 62.277344 L 255.0625 62.859375 C 254.808594 63.894531 254.355469 64.78125 253.867188 65.71875 C 252.9375 67.535156 252.039062 69.367188 251.167969 71.214844 L 250.828125 71.941406 L 250.035156 73.628906 L 249.46875 73.628906 L 249.394531 74.195312 C 249.113281 75.328125 248.59375 76.289062 248.046875 77.316406 L 247.480469 77.316406 L 247.335938 77.792969 C 246.839844 79.371094 246.207031 80.78125 245.40625 82.230469 L 244.726562 83.484375 L 244.394531 84.101562 C 243.6875 85.417969 243.03125 86.757812 242.375 88.097656 C 239.628906 88.257812 237.183594 87.476562 234.675781 86.425781 C 230.621094 84.871094 226.195312 83.78125 221.90625 83.132812 C 221.082031 82.988281 220.289062 82.792969 219.480469 82.582031 C 215.144531 81.5625 210.617188 81.210938 206.175781 81.113281 C 204.179688 81.058594 202.210938 80.859375 200.359375 80.066406 L 199.8125 79.585938 C 199.5625 78.644531 199.488281 77.746094 199.46875 76.773438 L 199.453125 75.953125 L 199.4375 75.070312 L 199.417969 74.140625 C 199.402344 73.140625 199.382812 72.144531 199.367188 71.144531 L 199.332031 69.078125 C 199.261719 65.089844 199.226562 61.105469 199.25 57.117188 C 199.257812 54.640625 199.199219 52.171875 199.105469 49.695312 C 198.925781 44.582031 198.90625 39.464844 198.90625 34.347656 C 198.90625 33.054688 198.902344 31.757812 198.898438 30.464844 C 198.894531 29.453125 198.894531 28.445312 198.894531 27.4375 C 198.894531 26.957031 198.894531 26.480469 198.890625 26 C 198.886719 25.339844 198.890625 24.679688 198.890625 24.023438 L 198.890625 22.886719 C 198.960938 21.984375 198.960938 21.984375 199.527344 21.132812 C 200.746094 20.605469 201.808594 20.492188 203.128906 20.492188 M 281.816406 34.46875 C 283.710938 34.375 285.378906 34.84375 287.101562 35.597656 C 287.707031 35.859375 288.296875 36.066406 288.925781 36.261719 C 290.398438 36.738281 291.808594 37.34375 293.234375 37.9375 C 295.367188 38.824219 297.523438 39.632812 299.691406 40.429688 L 299.691406 40.996094 L 300.4375 41.089844 C 301.421875 41.285156 302.175781 41.589844 303.078125 42.023438 L 304.058594 42.492188 L 305.082031 42.984375 C 305.757812 43.296875 306.429688 43.609375 307.105469 43.921875 L 308.179688 44.425781 C 309.003906 44.8125 309.828125 45.195312 310.65625 45.574219 C 313.042969 46.671875 315.351562 47.816406 317.574219 49.222656 C 318.667969 49.914062 319.78125 50.421875 320.972656 50.925781 C 321.570312 51.261719 322.160156 51.605469 322.746094 51.957031 C 323.582031 52.460938 324.300781 52.886719 325.230469 53.199219 L 325.230469 53.765625 L 325.667969 53.84375 C 326.644531 54.132812 327.519531 54.597656 328.421875 55.058594 L 328.980469 55.34375 C 329.433594 55.574219 329.882812 55.804688 330.335938 56.035156 L 330.335938 56.601562 L 330.921875 56.832031 C 331.867188 57.214844 332.804688 57.617188 333.742188 58.019531 L 333.742188 58.589844 L 334.46875 58.785156 C 335.566406 59.203125 336.617188 59.703125 337.429688 60.574219 L 337.429688 61.710938 C 335.941406 62.480469 334.5 63.214844 332.890625 63.695312 C 331.28125 64.207031 329.714844 64.789062 328.152344 65.421875 C 326.078125 66.25 326.078125 66.25 325.230469 66.25 L 325.230469 66.816406 L 323.808594 66.816406 L 323.808594 67.386719 C 321.929688 68.234375 321.929688 68.234375 320.972656 68.234375 L 320.972656 68.804688 L 319.554688 68.804688 L 319.554688 69.371094 C 319.003906 69.601562 318.453125 69.832031 317.90625 70.0625 L 316.976562 70.453125 C 316.421875 70.675781 315.863281 70.886719 315.296875 71.074219 L 315.296875 71.640625 L 314.421875 71.996094 C 313.367188 72.449219 312.390625 73.007812 311.414062 73.609375 C 311.042969 73.835938 310.671875 74.0625 310.304688 74.285156 L 309.703125 74.652344 C 308.996094 75.082031 308.285156 75.507812 307.578125 75.929688 L 306.8125 76.386719 L 305.332031 77.269531 C 304.335938 77.867188 303.351562 78.460938 302.398438 79.121094 L 301.675781 79.585938 L 301.109375 79.585938 L 301.109375 80.152344 L 300.347656 80.5625 C 299.070312 81.285156 297.886719 82.136719 296.695312 82.992188 C 296.28125 83.28125 295.859375 83.566406 295.433594 83.84375 L 294.867188 83.84375 L 294.867188 84.410156 C 294.371094 84.820312 293.863281 85.207031 293.34375 85.582031 L 292.484375 86.203125 L 291.746094 86.679688 L 291.179688 86.679688 L 291.179688 87.246094 C 290.695312 87.644531 290.199219 88.023438 289.6875 88.382812 L 288.851562 88.984375 C 288.21875 89.410156 287.613281 89.769531 286.921875 90.085938 L 286.921875 90.652344 L 285.789062 90.9375 L 285.789062 91.503906 C 285.320312 91.984375 285.320312 91.984375 284.707031 92.515625 L 284.097656 93.046875 C 283.515625 93.488281 283.515625 93.488281 282.667969 93.773438 L 282.667969 94.339844 C 282.183594 94.769531 281.6875 95.183594 281.175781 95.582031 C 280.382812 96.210938 279.621094 96.820312 278.910156 97.542969 L 278.410156 98.03125 L 277.84375 98.03125 L 277.84375 98.597656 C 277.453125 99.058594 277.453125 99.058594 276.992188 99.449219 L 276.421875 99.449219 L 276.421875 100.015625 C 276.035156 100.476562 276.035156 100.476562 275.574219 100.867188 L 275.003906 100.867188 L 275.003906 101.433594 C 274.613281 101.894531 274.613281 101.894531 274.152344 102.285156 L 273.585938 102.285156 L 273.585938 102.855469 C 272.828125 103.632812 271.976562 104.296875 271.03125 104.839844 C 269.992188 104.839844 269.398438 104.730469 268.480469 104.273438 L 268.480469 103.703125 L 267.859375 103.476562 C 266.742188 103.003906 265.871094 102.523438 265.019531 101.648438 C 263.746094 100.398438 262.242188 99.167969 260.535156 98.597656 L 260.535156 98.03125 L 259.90625 97.789062 C 259.183594 97.492188 258.511719 97.164062 257.828125 96.796875 L 257.113281 96.417969 L 256.382812 96.027344 C 255.902344 95.769531 255.417969 95.511719 254.9375 95.253906 L 254.292969 94.910156 C 253.691406 94.59375 253.691406 94.59375 252.871094 94.339844 L 252.871094 93.773438 L 252.265625 93.691406 C 251.320312 93.457031 250.648438 93.082031 249.820312 92.566406 L 248.992188 92.066406 C 248.332031 91.503906 248.332031 91.503906 248.070312 90.8125 C 248.03125 89.492188 248.617188 88.417969 249.183594 87.246094 C 249.5 86.695312 249.835938 86.164062 250.183594 85.628906 C 250.710938 84.808594 251.1875 83.964844 251.667969 83.117188 C 252.492188 81.660156 253.335938 80.21875 254.203125 78.789062 C 255.988281 76.066406 255.988281 76.066406 257.128906 73.058594 L 257.695312 73.058594 L 257.980469 71.640625 L 258.546875 71.640625 L 258.644531 71.019531 C 258.839844 70.183594 259.128906 69.570312 259.542969 68.816406 L 259.984375 68.015625 L 260.445312 67.191406 L 260.890625 66.378906 C 262.210938 63.988281 263.597656 61.648438 265.078125 59.351562 C 265.402344 58.832031 265.402344 58.832031 265.640625 58.019531 L 266.207031 58.019531 L 266.4375 57.425781 C 266.804688 56.53125 267.226562 55.675781 267.664062 54.8125 L 268.125 53.890625 L 268.480469 53.199219 L 269.046875 53.199219 C 269.351562 52.445312 269.640625 51.699219 269.898438 50.925781 L 270.464844 50.925781 L 270.660156 50.34375 C 270.96875 49.648438 271.257812 49.167969 271.707031 48.570312 C 272.480469 47.523438 273.03125 46.425781 273.585938 45.253906 C 273.773438 44.875 273.964844 44.496094 274.152344 44.117188 L 274.722656 44.117188 L 274.722656 43.265625 L 275.289062 43.265625 L 275.5 42.679688 C 275.925781 41.6875 276.441406 40.792969 276.992188 39.859375 L 277.558594 39.859375 L 277.734375 39.292969 C 278.265625 38.136719 278.96875 37.113281 279.828125 36.171875 L 280.394531 36.171875 L 280.625 35.640625 C 280.964844 35.039062 280.964844 35.039062 281.816406 34.46875 M 189.027344 22.835938 C 190.0625 26.011719 189.957031 29.355469 190.050781 32.660156 L 190.082031 33.660156 L 190.109375 34.566406 C 190.132812 35.351562 190.132812 35.351562 190.449219 36.171875 C 190.503906 36.65625 190.542969 37.144531 190.578125 37.632812 L 190.644531 38.53125 L 190.714844 39.503906 L 190.785156 40.503906 C 190.863281 41.5625 190.941406 42.617188 191.015625 43.675781 C 191.113281 45.0625 191.214844 46.453125 191.316406 47.839844 L 191.382812 48.8125 L 191.449219 49.714844 L 191.507812 50.511719 C 191.574219 51.148438 191.703125 51.726562 191.867188 52.347656 C 191.898438 52.789062 191.921875 53.230469 191.9375 53.675781 L 191.964844 54.464844 L 191.992188 55.308594 C 192.082031 57.753906 192.253906 60.179688 192.507812 62.613281 C 192.71875 64.691406 192.828125 66.765625 192.902344 68.851562 L 192.929688 69.558594 L 192.953125 70.175781 C 192.988281 70.804688 192.988281 70.804688 193.144531 71.472656 C 193.414062 72.882812 193.363281 74.324219 193.375 75.753906 L 193.398438 76.726562 C 193.417969 79.035156 193.417969 79.035156 192.855469 80.179688 C 191.125 81.507812 189.195312 81.722656 187.085938 82.007812 L 186.050781 82.140625 C 185.332031 82.238281 184.613281 82.335938 183.894531 82.4375 L 182.859375 82.578125 C 175.894531 83.550781 168.792969 85.40625 162.3125 88.148438 C 161.171875 88.609375 160.210938 88.820312 158.96875 88.808594 L 158.039062 88.816406 L 157.25 88.667969 C 156.511719 87.898438 156.210938 87.097656 155.828125 86.113281 C 155.644531 85.738281 155.453125 85.367188 155.261719 84.996094 C 154.789062 84.066406 154.429688 83.140625 154.128906 82.140625 L 153.558594 82.140625 C 152.707031 80.542969 152.707031 80.542969 152.707031 79.585938 L 152.140625 79.585938 C 151.289062 77.953125 151.289062 77.953125 151.289062 77.316406 L 150.722656 77.316406 C 150.261719 76.660156 150.261719 76.660156 149.871094 75.898438 L 149.871094 75.046875 L 149.304688 75.046875 L 148.84375 74.214844 C 148.367188 73.378906 147.855469 72.578125 147.316406 71.78125 C 145.261719 68.730469 145.261719 68.730469 145.046875 67.386719 L 144.480469 67.386719 C 144.121094 66.894531 144.121094 66.894531 143.71875 66.214844 L 143.273438 65.464844 L 142.8125 64.671875 L 142.355469 63.902344 C 142.0625 63.402344 141.769531 62.902344 141.480469 62.402344 C 141.226562 61.96875 140.972656 61.539062 140.714844 61.113281 C 140.441406 60.65625 140.1875 60.191406 139.941406 59.722656 L 139.941406 58.871094 L 139.371094 58.871094 L 138.910156 58.039062 C 138.449219 57.226562 137.949219 56.453125 137.421875 55.679688 C 136.171875 53.824219 135.0625 51.886719 134.265625 49.792969 L 133.699219 49.792969 L 133.199219 48.90625 C 132.800781 48.203125 132.386719 47.554688 131.925781 46.882812 L 131.425781 46.105469 L 131.425781 45.253906 L 130.859375 45.253906 C 130.613281 44.804688 130.371094 44.355469 130.132812 43.90625 L 129.722656 43.148438 C 129.441406 42.414062 129.441406 42.414062 129.488281 41.773438 L 129.726562 41.28125 L 130.574219 40.996094 L 130.574219 40.429688 L 131.066406 40.242188 C 133.117188 39.4375 135.105469 38.519531 137.101562 37.589844 C 138.945312 36.738281 138.945312 36.738281 139.941406 36.738281 L 139.941406 36.171875 L 140.472656 35.992188 C 142.058594 35.441406 143.605469 34.804688 145.117188 34.078125 C 146.59375 33.378906 148.074219 32.710938 149.585938 32.09375 L 150.597656 31.679688 C 151.589844 31.34375 152.519531 31.179688 153.558594 31.066406 L 153.558594 30.496094 L 154.257812 30.300781 C 155.351562 29.988281 156.441406 29.675781 157.53125 29.363281 L 158.1875 29.175781 C 158.851562 28.984375 159.511719 28.792969 160.175781 28.601562 L 160.816406 28.414062 C 161.808594 28.1875 161.808594 28.1875 162.640625 27.660156 C 163.011719 27.582031 163.382812 27.511719 163.757812 27.445312 C 165.195312 27.171875 166.589844 26.796875 167.996094 26.402344 C 170.90625 25.582031 173.761719 24.835938 176.761719 24.40625 C 178.449219 24.128906 180.097656 23.671875 181.746094 23.222656 C 184.136719 22.648438 186.585938 22.789062 189.027344 22.835938 M 89.148438 187.980469 C 89.550781 188.585938 89.707031 189.03125 89.789062 189.753906 L 89.789062 190.46875 L 89.796875 191.289062 L 89.792969 192.179688 L 89.792969 193.117188 C 89.796875 194.136719 89.792969 195.152344 89.785156 196.171875 L 89.785156 197.222656 C 89.773438 202.136719 89.679688 207.046875 89.46875 211.957031 L 89.433594 212.761719 C 89.3125 215.566406 89.128906 218.328125 88.703125 221.101562 C 88.574219 222.09375 88.515625 223.070312 88.476562 224.066406 C 88.316406 226.75 87.746094 229.339844 87.164062 231.960938 L 87.015625 232.613281 C 86.703125 234.007812 86.371094 235.398438 86.027344 236.785156 L 85.761719 237.851562 C 84.53125 242.640625 82.847656 247.257812 80.910156 251.804688 C 80.464844 252.851562 80.03125 253.894531 79.648438 254.964844 C 79.199219 256.179688 78.609375 257.300781 77.992188 258.4375 L 77.652344 259.074219 C 77.011719 260.265625 76.363281 261.457031 75.707031 262.640625 C 75.105469 263.730469 74.574219 264.855469 74.109375 266.011719 L 73.542969 266.011719 L 73.339844 266.582031 C 72.875 267.660156 72.300781 268.640625 71.699219 269.644531 L 71.351562 270.242188 C 71.058594 270.734375 70.742188 271.210938 70.421875 271.683594 L 69.855469 271.683594 L 69.855469 272.535156 L 69.285156 272.535156 C 68.945312 273.199219 68.671875 273.8125 68.433594 274.523438 L 67.867188 274.523438 L 67.65625 275.144531 C 67.265625 276.019531 66.8125 276.652344 66.164062 277.359375 L 65.597656 277.359375 L 65.597656 278.210938 L 65.03125 278.210938 L 65.03125 278.777344 L 64.460938 278.777344 L 64.265625 279.238281 C 63.765625 280.148438 63.175781 280.847656 62.476562 281.617188 L 61.910156 281.617188 L 61.765625 282.203125 C 61.144531 283.417969 60.171875 284.226562 59.070312 285.019531 L 58.503906 285.019531 L 58.21875 285.871094 C 57.777344 286.328125 57.777344 286.328125 57.246094 286.777344 L 56.714844 287.234375 L 56.234375 287.574219 L 55.667969 287.574219 L 55.667969 288.140625 L 54.246094 288.710938 L 54.246094 289.277344 C 53.769531 289.707031 53.769531 289.707031 53.148438 290.164062 L 52.527344 290.628906 L 51.976562 290.980469 L 51.410156 290.980469 L 51.410156 291.546875 C 50.914062 291.957031 50.40625 292.347656 49.882812 292.71875 L 49.027344 293.339844 L 48.289062 293.816406 L 47.722656 293.816406 L 47.722656 294.386719 C 47.046875 294.847656 47.046875 294.847656 46.300781 295.234375 L 45.734375 295.234375 L 45.734375 295.804688 L 44.316406 296.085938 L 44.316406 296.65625 L 43.464844 296.65625 L 43.464844 297.222656 L 40.910156 298.074219 L 40.910156 298.640625 C 40.273438 298.96875 39.632812 299.292969 38.996094 299.617188 L 38.449219 299.898438 C 37.582031 300.335938 36.765625 300.738281 35.804688 300.910156 L 35.804688 301.480469 C 34.675781 301.8125 33.558594 302.121094 32.398438 302.328125 L 32.398438 302.898438 L 31.734375 303.105469 C 30.34375 303.554688 28.996094 303.992188 27.699219 304.671875 C 26.722656 305.167969 26.722656 305.167969 25.871094 305.167969 L 25.871094 304.316406 C 26.382812 303.910156 26.382812 303.910156 27.0625 303.5 C 28.363281 302.671875 29.410156 301.8125 30.304688 300.539062 L 30.695312 300.058594 L 31.546875 300.058594 L 31.832031 299.207031 L 32.398438 299.207031 L 32.398438 298.640625 L 32.964844 298.640625 L 32.964844 298.074219 L 33.535156 298.074219 L 33.816406 297.222656 L 34.386719 297.222656 L 34.617188 296.726562 C 34.960938 296.070312 35.320312 295.515625 35.804688 294.953125 L 36.371094 294.953125 L 36.371094 294.386719 L 36.9375 294.386719 L 37.136719 293.921875 C 37.613281 293.054688 38.242188 292.34375 38.890625 291.601562 C 39.902344 290.414062 40.777344 289.257812 41.480469 287.859375 L 42.046875 287.859375 L 42.257812 287.273438 C 42.683594 286.277344 43.199219 285.386719 43.75 284.453125 L 44.316406 284.453125 L 44.414062 283.820312 C 44.605469 283.011719 44.859375 282.523438 45.308594 281.828125 C 49.328125 275.351562 52.824219 267.78125 54.53125 260.335938 C 54.660156 259.867188 54.792969 259.398438 54.925781 258.929688 C 55.40625 257.179688 55.78125 255.414062 56.128906 253.632812 L 56.316406 252.660156 C 56.738281 250.394531 56.980469 248.191406 57.046875 245.890625 C 57.085938 245.011719 57.085938 245.011719 57.367188 244.160156 C 57.425781 243.671875 57.472656 243.183594 57.511719 242.695312 L 57.582031 241.796875 L 57.652344 240.828125 L 57.726562 239.824219 C 58.234375 232.816406 58.410156 225.851562 57.972656 218.835938 L 57.902344 217.730469 C 57.773438 215.789062 57.546875 213.898438 57.207031 211.984375 C 57.054688 211.054688 57.015625 210.144531 56.996094 209.207031 C 56.859375 205.957031 56.0625 202.785156 55.382812 199.613281 C 55.207031 198.792969 55.039062 197.96875 54.867188 197.148438 L 54.667969 196.203125 C 54.527344 195.324219 54.453125 194.542969 54.53125 193.652344 C 56.121094 192.101562 58.109375 191.6875 60.207031 191.101562 C 60.65625 190.957031 61.105469 190.808594 61.554688 190.65625 L 62.167969 190.453125 C 62.554688 190.320312 62.941406 190.179688 63.324219 190.039062 C 65.4375 189.269531 67.640625 188.902344 69.855469 188.546875 L 70.726562 188.40625 C 73.074219 188.046875 75.417969 187.832031 77.785156 187.695312 C 78.367188 187.660156 78.945312 187.621094 79.523438 187.585938 C 86.925781 187.125 86.925781 187.125 89.148438 187.980469 M 120.929688 47.523438 C 121.453125 48.136719 121.9375 48.78125 122.382812 49.457031 L 123.113281 50.523438 L 123.453125 51.035156 C 123.714844 51.417969 123.992188 51.789062 124.277344 52.15625 L 124.617188 52.628906 L 124.617188 53.199219 L 125.183594 53.199219 C 126.285156 55.078125 126.285156 55.078125 126.605469 56.035156 L 127.171875 56.035156 C 127.632812 56.550781 127.632812 56.550781 128.023438 57.171875 L 128.023438 58.019531 L 128.875 58.304688 L 128.875 58.871094 L 129.441406 58.871094 C 129.902344 59.546875 129.902344 59.546875 130.292969 60.292969 L 130.292969 60.859375 L 130.859375 60.859375 C 131.320312 61.515625 131.320312 61.515625 131.710938 62.277344 L 131.710938 63.128906 L 132.277344 63.128906 C 132.648438 63.578125 132.648438 63.578125 133.070312 64.207031 L 133.539062 64.902344 L 134.035156 65.648438 L 135.035156 67.132812 L 135.519531 67.859375 C 136.207031 68.871094 136.921875 69.859375 137.648438 70.84375 L 137.953125 71.359375 L 137.953125 72.207031 L 138.519531 72.207031 C 138.859375 72.6875 139.175781 73.179688 139.480469 73.679688 C 140 74.535156 140.507812 75.328125 141.140625 76.105469 L 141.640625 76.75 L 141.640625 77.316406 L 142.210938 77.316406 L 142.492188 78.734375 L 143.0625 78.734375 L 143.0625 79.585938 L 143.628906 79.585938 C 144.089844 80.261719 144.089844 80.261719 144.480469 81.003906 L 144.480469 81.574219 L 145.046875 81.574219 C 145.507812 82.246094 145.507812 82.246094 145.898438 82.992188 L 145.898438 83.558594 L 146.464844 83.558594 L 146.464844 84.410156 L 147.035156 84.410156 L 147.316406 85.546875 L 147.886719 85.546875 L 147.886719 86.394531 L 148.453125 86.394531 C 148.914062 87.027344 148.914062 87.027344 149.429688 87.867188 L 149.941406 88.695312 L 150.4375 89.515625 L 150.941406 90.28125 L 151.289062 90.9375 C 151.058594 91.734375 151.058594 91.734375 150.722656 92.355469 L 150.15625 92.355469 L 150.15625 92.921875 L 149.304688 92.921875 L 149.304688 93.488281 L 147.886719 93.773438 L 147.886719 94.339844 C 147.332031 94.617188 146.78125 94.894531 146.226562 95.167969 C 145.71875 95.425781 145.214844 95.6875 144.710938 95.957031 C 143.957031 96.304688 143.3125 96.492188 142.492188 96.609375 L 142.492188 97.179688 C 140.863281 98.03125 140.863281 98.03125 140.222656 98.03125 L 140.222656 98.597656 C 138.59375 99.449219 138.59375 99.449219 137.953125 99.449219 L 137.953125 100.015625 L 136.535156 100.300781 L 136.535156 100.867188 C 136.058594 101.234375 136.058594 101.234375 135.433594 101.613281 L 134.816406 101.996094 C 134.265625 102.285156 134.265625 102.285156 133.699219 102.285156 L 133.699219 102.855469 L 132.277344 103.136719 L 132.277344 103.703125 L 130.859375 104.273438 L 130.859375 104.839844 C 129.695312 105.707031 128.460938 106.414062 127.066406 106.828125 C 126.320312 106.828125 126.320312 106.828125 125.644531 106.558594 L 125.183594 106.257812 L 125.183594 105.691406 L 124.332031 105.691406 L 124.332031 105.125 C 123.671875 104.78125 123.058594 104.507812 122.347656 104.273438 C 121.960938 103.847656 121.960938 103.847656 121.53125 103.296875 C 120.464844 102.019531 119.222656 101.078125 117.882812 100.109375 C 117.46875 99.804688 117.070312 99.488281 116.671875 99.164062 L 116.671875 98.597656 L 115.820312 98.597656 L 115.820312 98.03125 L 115.328125 97.800781 C 114.664062 97.449219 114.082031 97.058594 113.480469 96.609375 L 112.871094 96.167969 L 112.417969 95.761719 L 112.417969 95.191406 L 111.882812 94.925781 L 110.714844 94.339844 L 110.714844 93.773438 L 109.578125 93.488281 L 109.578125 92.921875 L 109.011719 92.921875 C 108.550781 92.53125 108.550781 92.53125 108.160156 92.070312 L 108.160156 91.503906 L 107.308594 91.503906 L 107.308594 90.9375 L 106.742188 90.9375 C 106.28125 90.546875 106.28125 90.546875 105.890625 90.085938 L 105.890625 89.515625 C 105.226562 89.175781 104.613281 88.902344 103.902344 88.667969 L 103.902344 88.097656 L 103.050781 87.816406 L 103.050781 87.246094 L 102.484375 87.246094 L 102.484375 86.679688 L 101.988281 86.449219 C 101.332031 86.105469 100.777344 85.742188 100.214844 85.261719 L 100.214844 84.695312 L 99.699219 84.445312 C 99.078125 84.125 99.078125 84.125 98.230469 83.558594 L 98.230469 82.992188 L 97.660156 82.992188 L 97.660156 82.421875 L 97.128906 82.15625 L 95.957031 81.574219 L 95.957031 81.003906 L 95.445312 80.757812 C 94.824219 80.4375 94.824219 80.4375 93.972656 79.871094 L 93.972656 79.300781 L 92.554688 78.734375 L 92.554688 78.167969 L 91.703125 77.882812 L 91.703125 77.316406 L 90.851562 77.316406 L 90.851562 76.75 L 89.714844 76.464844 L 89.714844 75.898438 L 88.296875 75.328125 L 88.296875 74.480469 L 87.730469 74.480469 C 87.878906 73.695312 88.042969 72.96875 88.296875 72.207031 L 88.863281 72.207031 L 89.113281 71.695312 C 89.433594 71.074219 89.433594 71.074219 90 70.222656 L 90.566406 70.222656 L 90.566406 69.65625 L 91.136719 69.65625 L 91.136719 68.804688 L 91.984375 68.804688 L 92.179688 68.320312 C 92.660156 67.484375 93.253906 66.960938 93.972656 66.320312 L 94.734375 65.632812 L 95.390625 65.113281 L 95.957031 65.113281 L 95.957031 64.546875 C 96.347656 64.085938 96.347656 64.085938 96.808594 63.695312 L 97.378906 63.695312 L 97.378906 63.128906 C 97.765625 62.667969 97.765625 62.667969 98.230469 62.277344 L 98.796875 62.277344 L 98.796875 61.710938 L 99.648438 61.710938 L 99.929688 60.859375 L 100.5 60.859375 L 100.5 60.292969 C 101.03125 59.832031 101.03125 59.832031 101.632812 59.441406 L 102.199219 59.441406 L 102.199219 58.871094 L 103.050781 58.871094 L 103.050781 58.304688 C 103.527344 57.878906 103.527344 57.878906 104.152344 57.417969 L 104.769531 56.953125 L 105.324219 56.601562 L 105.890625 56.601562 L 105.890625 56.035156 L 106.742188 56.035156 L 106.742188 55.46875 C 107.382812 54.988281 107.382812 54.988281 108.230469 54.457031 C 108.507812 54.28125 108.785156 54.105469 109.070312 53.921875 C 109.738281 53.550781 110.25 53.328125 110.996094 53.199219 L 110.996094 52.628906 C 111.40625 52.300781 111.40625 52.300781 112.007812 51.921875 L 112.699219 51.472656 L 113.550781 50.925781 C 114.308594 50.433594 115.066406 49.9375 115.820312 49.4375 L 116.398438 49.0625 C 116.875 48.746094 117.34375 48.421875 117.808594 48.089844 L 118.089844 47.523438 C 119.128906 47.207031 119.90625 47.15625 120.929688 47.523438 M 80.246094 82.847656 C 81.660156 83.058594 82.800781 83.722656 84.042969 84.410156 L 84.042969 84.976562 L 84.714844 85.242188 C 85.460938 85.546875 85.460938 85.546875 86.027344 85.828125 L 86.027344 86.394531 L 86.488281 86.609375 C 87.132812 86.949219 87.726562 87.332031 88.328125 87.742188 C 88.996094 88.1875 89.675781 88.613281 90.355469 89.039062 C 91.683594 89.878906 92.976562 90.765625 94.257812 91.679688 C 94.808594 92.082031 94.808594 92.082031 95.390625 92.355469 L 95.390625 92.921875 L 96.242188 92.921875 L 96.242188 93.488281 L 96.824219 93.683594 C 97.886719 94.160156 98.753906 94.800781 99.683594 95.496094 C 100.996094 96.492188 100.996094 96.492188 102.484375 97.179688 L 103.335938 98.3125 L 104.1875 98.597656 L 104.1875 99.164062 L 105.324219 99.449219 L 105.324219 100.015625 L 106.171875 100.015625 L 106.171875 100.582031 L 106.742188 100.582031 C 107.066406 100.917969 107.390625 101.253906 107.714844 101.59375 C 108.398438 102.21875 109.179688 102.648438 109.984375 103.105469 L 110.429688 103.421875 L 110.429688 103.988281 L 111.566406 104.273438 L 111.566406 104.839844 L 112.042969 105.070312 C 114.03125 106.09375 115.75 107.460938 117.523438 108.8125 L 118.3125 109.402344 L 119.011719 109.929688 L 119.636719 110.398438 L 120.078125 110.796875 L 120.078125 111.367188 L 120.644531 111.367188 L 120.929688 112.785156 L 120.359375 112.785156 L 120.09375 113.457031 C 119.792969 114.203125 119.792969 114.203125 119.511719 114.769531 L 118.941406 114.769531 L 118.660156 115.621094 L 118.089844 115.621094 L 118.089844 116.472656 L 117.523438 116.472656 L 117.523438 117.042969 C 117.132812 117.503906 117.132812 117.503906 116.671875 117.890625 L 116.105469 117.890625 L 116.105469 118.460938 C 115.714844 118.921875 115.714844 118.921875 115.253906 119.3125 L 114.6875 119.3125 L 114.457031 119.804688 C 114.105469 120.46875 113.714844 121.050781 113.265625 121.652344 L 112.824219 122.257812 L 112.417969 122.714844 L 111.847656 122.714844 L 111.582031 123.390625 C 111.28125 124.136719 111.28125 124.136719 110.996094 124.703125 L 110.429688 124.703125 L 110.144531 125.554688 L 109.578125 125.554688 L 109.578125 126.40625 L 109.011719 126.40625 L 108.746094 127.078125 C 108.445312 127.824219 108.445312 127.824219 108.160156 128.390625 L 107.59375 128.390625 L 107.308594 129.808594 L 106.742188 129.808594 L 106.742188 130.660156 L 106.171875 130.660156 L 105.945312 131.269531 C 104.886719 133.796875 103.300781 136.375 101.351562 138.324219 C 100.335938 138.40625 99.492188 138.464844 98.523438 138.132812 C 97.964844 137.867188 97.421875 137.578125 96.878906 137.277344 C 96.480469 137.066406 96.082031 136.855469 95.683594 136.644531 L 95.09375 136.335938 C 94.078125 135.816406 93.023438 135.402344 91.96875 134.980469 C 91.050781 134.597656 90.152344 134.183594 89.253906 133.765625 C 87.089844 132.757812 84.9375 131.832031 82.621094 131.230469 L 82.621094 130.660156 L 82.011719 130.558594 C 81.164062 130.367188 80.4375 130.085938 79.644531 129.738281 C 75.949219 128.164062 75.949219 128.164062 72.125 126.972656 L 72.125 126.40625 L 71.40625 126.316406 C 70.296875 126.097656 69.308594 125.710938 68.273438 125.269531 C 67.113281 124.777344 66 124.328125 64.746094 124.136719 L 64.746094 123.566406 L 63.949219 123.515625 C 62.003906 123.246094 60.238281 122.171875 58.503906 121.296875 C 58.328125 118.929688 58.328125 118.929688 58.746094 117.804688 C 58.941406 117.429688 59.148438 117.0625 59.363281 116.699219 C 59.65625 116.15625 59.796875 115.65625 59.921875 115.054688 L 60.488281 115.054688 L 60.550781 114.378906 C 60.851562 112.992188 61.445312 111.820312 62.066406 110.550781 L 62.457031 109.753906 C 62.839844 108.964844 63.222656 108.179688 63.609375 107.394531 L 64.222656 106.132812 C 65.28125 103.976562 66.410156 101.882812 67.617188 99.808594 C 68.257812 98.695312 68.871094 97.570312 69.476562 96.441406 L 69.855469 95.761719 L 70.292969 94.964844 L 70.703125 94.339844 L 71.273438 94.339844 L 71.347656 93.734375 C 71.605469 92.738281 72.039062 92.113281 72.636719 91.273438 L 72.972656 90.800781 C 73.347656 90.277344 73.730469 89.753906 74.109375 89.234375 L 74.550781 88.625 C 75.003906 87.996094 75.460938 87.375 75.917969 86.75 L 76.359375 86.144531 L 76.777344 85.585938 L 77.144531 85.085938 C 77.515625 84.695312 77.515625 84.695312 78.367188 84.410156 L 78.367188 83.84375 C 78.972656 83.234375 79.402344 83.011719 80.246094 82.847656 M 58.148438 132.882812 L 58.703125 132.976562 C 59.089844 133.042969 59.476562 133.109375 59.863281 133.179688 C 60.449219 133.285156 61.039062 133.386719 61.625 133.484375 C 63.277344 133.769531 64.863281 134.078125 66.449219 134.632812 C 66.992188 134.769531 67.535156 134.898438 68.082031 135.023438 C 69.203125 135.296875 70.246094 135.621094 71.308594 136.070312 C 72.429688 136.539062 73.492188 136.816406 74.6875 137.03125 C 77.457031 137.550781 80.203125 138.175781 82.820312 139.222656 C 83.507812 139.46875 84.175781 139.617188 84.890625 139.742188 L 84.890625 140.308594 L 85.691406 140.363281 C 86.964844 140.542969 88.023438 141.085938 89.179688 141.632812 C 90.933594 142.441406 92.746094 143.050781 94.609375 143.554688 C 95.96875 143.953125 96.886719 144.46875 97.945312 145.417969 C 98.265625 146.054688 98.265625 146.054688 98.230469 146.835938 C 97.890625 148.199219 97.339844 149.488281 96.808594 150.789062 C 96.332031 151.96875 95.945312 153.152344 95.59375 154.375 C 95.398438 155.039062 95.175781 155.6875 94.949219 156.339844 C 94.5625 157.476562 94.324219 158.609375 94.105469 159.789062 C 93.871094 160.957031 93.53125 162.085938 93.128906 163.210938 C 92.800781 164.253906 92.597656 165.300781 92.410156 166.378906 C 91.980469 168.78125 91.980469 168.78125 91.667969 169.925781 C 91.46875 170.75 91.378906 171.414062 91.328125 172.25 C 91.132812 174.285156 90.679688 176.242188 89.714844 178.046875 C 89.015625 178.5625 88.519531 178.703125 87.664062 178.839844 L 86.878906 178.898438 L 86.03125 178.992188 C 85.496094 179.046875 84.960938 179.089844 84.421875 179.121094 C 83.714844 179.160156 83.714844 179.160156 82.90625 179.464844 C 82.359375 179.523438 81.808594 179.570312 81.257812 179.609375 L 80.277344 179.679688 L 79.253906 179.75 C 78.585938 179.796875 77.917969 179.84375 77.25 179.890625 L 76.351562 179.953125 C 75.546875 180.015625 75.546875 180.015625 74.828125 180.175781 C 73.957031 180.347656 73.105469 180.386719 72.21875 180.433594 C 69.898438 180.570312 67.617188 180.875 65.320312 181.214844 C 64.644531 181.3125 63.96875 181.410156 63.292969 181.503906 L 62 181.691406 L 61.390625 181.777344 C 60.339844 181.929688 60.339844 181.929688 59.355469 182.304688 C 58.707031 182.347656 58.054688 182.367188 57.402344 182.375 L 56.34375 182.398438 C 55.382812 182.304688 55.382812 182.304688 54.71875 181.929688 C 53.703125 180.898438 53.351562 179.425781 52.96875 178.058594 C 52.699219 176.941406 52.554688 175.800781 52.402344 174.660156 L 52.300781 173.941406 C 52.230469 173.425781 52.160156 172.910156 52.09375 172.390625 C 52.011719 171.789062 51.921875 171.1875 51.828125 170.585938 C 51.316406 167.152344 51.332031 163.738281 51.351562 160.277344 C 51.355469 159.238281 51.355469 158.203125 51.355469 157.167969 C 51.359375 156.503906 51.359375 155.84375 51.363281 155.183594 L 51.363281 154.246094 L 51.367188 153.378906 L 51.371094 152.621094 C 51.40625 151.976562 51.523438 151.425781 51.695312 150.808594 C 51.75 150.328125 51.796875 149.84375 51.835938 149.359375 L 51.90625 148.53125 L 52.046875 146.804688 L 52.121094 145.972656 L 52.179688 145.214844 C 52.261719 144.566406 52.261719 144.566406 52.542969 143.714844 C 52.582031 143.210938 52.609375 142.710938 52.632812 142.207031 C 52.761719 140.472656 53.179688 138.90625 53.699219 137.25 C 53.949219 136.378906 54.117188 135.53125 54.246094 134.632812 L 54.816406 134.632812 L 54.886719 133.960938 L 55.097656 133.214844 C 56.109375 132.457031 56.953125 132.675781 58.148438 132.882812 "/><path style=" stroke:none;fill-rule:nonzero;fill:#babebe;fill-opacity:1;" d="M 198.960938 22.269531 L 199.527344 22.550781 L 199.523438 23.316406 C 199.484375 30.726562 199.613281 38.128906 199.8125 45.535156 L 199.242188 45.820312 C 198.886719 44.726562 198.921875 43.636719 198.925781 42.5 L 198.925781 41.835938 C 198.925781 41.113281 198.929688 40.390625 198.933594 39.671875 L 198.933594 38.167969 C 198.933594 36.851562 198.9375 35.53125 198.941406 34.214844 C 198.941406 32.871094 198.945312 31.527344 198.945312 30.183594 C 198.949219 27.542969 198.953125 24.90625 198.960938 22.269531 "/><path style=" stroke:none;fill-rule:nonzero;fill:#e1e7e4;fill-opacity:1;" d="M 156.113281 241.324219 L 156.679688 241.609375 C 156.160156 242.945312 155.738281 244.015625 154.695312 245.011719 L 154.410156 245.578125 L 153.558594 246.148438 C 153.273438 246.464844 152.996094 246.789062 152.726562 247.125 C 152.113281 247.855469 151.527344 248.457031 150.722656 248.984375 C 151.121094 247.714844 151.765625 247.066406 152.707031 246.148438 L 153.1875 245.351562 L 153.558594 244.730469 L 154.128906 244.730469 L 154.359375 244.109375 C 154.695312 243.3125 155.054688 242.605469 155.546875 241.890625 L 156.113281 241.890625 Z M 156.113281 241.324219 "/><path style=" stroke:none;fill-rule:nonzero;fill:#d6dad9;fill-opacity:1;" d="M 51.410156 163.859375 L 51.976562 164.144531 C 52.671875 167.089844 52.699219 170.210938 52.828125 173.222656 L 52.261719 173.222656 L 52.148438 172.144531 L 51.996094 170.742188 L 51.921875 170.03125 L 51.84375 169.34375 L 51.777344 168.714844 C 51.703125 168.113281 51.703125 168.113281 51.542969 167.523438 C 51.363281 166.789062 51.382812 166.101562 51.390625 165.351562 L 51.398438 164.503906 Z M 51.410156 163.859375 "/><path style=" stroke:none;fill-rule:nonzero;fill:#d9e0dd;fill-opacity:1;" d="M 120.078125 101.433594 C 121.101562 101.882812 121.882812 102.511719 122.738281 103.226562 L 123.574219 103.914062 C 124.003906 104.277344 124.429688 104.648438 124.835938 105.039062 C 125.277344 105.484375 125.277344 105.484375 126.035156 105.976562 C 126.832031 106.085938 127.496094 106.042969 128.304688 105.976562 L 128.023438 106.542969 C 127.222656 106.753906 127.222656 106.753906 126.320312 106.828125 C 125.644531 106.558594 125.644531 106.558594 125.183594 106.257812 L 125.183594 105.691406 L 124.332031 105.691406 L 124.332031 105.125 C 123.671875 104.78125 123.058594 104.507812 122.347656 104.273438 C 121.839844 103.769531 121.839844 103.769531 121.320312 103.15625 L 120.792969 102.542969 C 120.359375 102.003906 120.359375 102.003906 120.078125 101.433594 "/><path style=" stroke:none;fill-rule:nonzero;fill:#dae1e0;fill-opacity:1;" d="M 95.390625 65.113281 L 95.957031 65.398438 L 89.148438 72.207031 L 89.148438 71.359375 C 89.539062 70.738281 89.539062 70.738281 90 70.222656 L 90.566406 70.222656 L 90.566406 69.65625 L 91.136719 69.65625 L 91.136719 68.804688 L 91.984375 68.804688 L 92.179688 68.320312 C 92.664062 67.476562 93.277344 66.957031 94.007812 66.320312 L 94.789062 65.632812 Z M 95.390625 65.113281 "/><path style=" stroke:none;fill-rule:nonzero;fill:#c4c9c7;fill-opacity:1;" d="M 204.636719 20.566406 L 205.203125 21.417969 L 199.527344 21.703125 L 199.527344 21.132812 C 201.128906 20.421875 202.910156 20.324219 204.636719 20.566406 "/><path style=" stroke:none;fill-rule:nonzero;fill:#d3dbd8;fill-opacity:1;" d="M 257.695312 72.492188 L 258.261719 72.492188 C 257.828125 74.046875 257.09375 75.335938 256.277344 76.714844 L 255.890625 77.386719 L 255.515625 78.023438 L 255.175781 78.601562 L 254.859375 79.019531 L 254.292969 79.019531 C 254.820312 77.570312 255.605469 76.316406 256.402344 75 C 256.773438 74.324219 256.996094 73.808594 257.128906 73.058594 L 257.695312 73.058594 Z M 257.695312 72.492188 "/><path style=" stroke:none;fill-rule:nonzero;fill:#dce2e1;fill-opacity:1;" d="M 266.492188 198.195312 C 266.957031 198.238281 266.957031 198.238281 267.628906 198.476562 C 268.191406 198.980469 268.738281 199.507812 269.257812 200.054688 L 269.695312 200.503906 C 270.046875 200.867188 270.398438 201.234375 270.75 201.597656 L 270.464844 202.167969 L 269.898438 202.167969 C 269.457031 201.71875 269.457031 201.71875 268.957031 201.121094 C 268.351562 200.40625 267.75 199.714844 267.078125 199.0625 L 266.492188 198.476562 Z M 266.492188 198.195312 "/><path style=" stroke:none;fill-rule:nonzero;fill:#cfd7d4;fill-opacity:1;" d="M 50.558594 271.683594 L 50.84375 272.535156 C 50.566406 273.3125 50.257812 274.074219 49.921875 274.824219 L 49.652344 275.453125 C 49.140625 276.605469 49.140625 276.605469 48.855469 277.078125 L 48.003906 277.644531 C 48.324219 276.34375 48.726562 275.316406 49.417969 274.175781 C 49.875 273.375 50.210938 272.539062 50.558594 271.683594 "/><path style=" stroke:none;fill-rule:nonzero;fill:#d8dada;fill-opacity:1;" d="M 52.828125 175.777344 L 53.679688 176.34375 C 53.878906 176.980469 53.878906 176.980469 54 177.726562 C 54.148438 178.601562 54.304688 179.460938 54.53125 180.316406 L 53.679688 180.035156 C 53.101562 178.90625 52.839844 177.726562 52.777344 176.46875 Z M 52.828125 175.777344 "/><path style=" stroke:none;fill-rule:nonzero;fill:#dae1e0;fill-opacity:1;" d="M 296.855469 248.984375 C 297.945312 249.15625 298.800781 249.488281 299.78125 249.996094 L 300.539062 250.386719 L 301.109375 250.6875 L 301.109375 251.253906 C 300.105469 250.867188 299.144531 250.429688 298.183594 249.941406 L 297.425781 249.558594 L 296.855469 249.269531 Z M 296.855469 248.984375 "/><path style=" stroke:none;fill-rule:nonzero;fill:#e0e6e5;fill-opacity:1;" d="M 88.296875 72.777344 L 88.863281 73.34375 L 88.863281 74.195312 C 89.144531 74.578125 89.425781 74.957031 89.714844 75.328125 L 89.714844 75.898438 L 88.296875 75.328125 L 88.296875 74.480469 L 87.730469 74.480469 C 87.816406 74.003906 87.910156 73.53125 88.011719 73.058594 Z M 88.296875 72.777344 "/><path style=" stroke:none;fill-rule:nonzero;fill:#d2d8d8;fill-opacity:1;" d="M 141.074219 61.425781 L 141.925781 61.710938 L 141.925781 62.277344 L 142.492188 62.277344 L 142.777344 63.695312 L 143.34375 63.695312 L 143.914062 65.113281 L 143.34375 65.398438 Z M 141.074219 61.425781 "/><path style=" stroke:none;fill-rule:nonzero;fill:#e0e6e5;fill-opacity:1;" d="M 265.640625 101.71875 L 266.777344 102.003906 L 266.777344 102.570312 L 267.253906 102.640625 C 268.109375 102.917969 268.65625 103.40625 269.328125 103.988281 L 269.046875 104.554688 L 268.480469 104.273438 L 268.480469 103.703125 L 267.859375 103.476562 C 267.0625 103.136719 266.355469 102.777344 265.640625 102.285156 Z M 265.640625 101.71875 "/><path style=" stroke:none;fill-rule:nonzero;fill:#d9e0dd;fill-opacity:1;" d="M 99.363281 262.320312 L 99.929688 262.605469 L 99.496094 263.082031 L 98.378906 264.324219 L 97.945312 264.875 L 97.945312 265.441406 L 97.09375 265.160156 C 97.417969 264.738281 97.742188 264.320312 98.070312 263.898438 L 98.617188 263.191406 C 99.078125 262.605469 99.078125 262.605469 99.363281 262.320312 M 152.992188 245.863281 L 153.558594 246.429688 L 151.007812 248.984375 L 151.007812 248.132812 C 151.441406 247.554688 151.441406 247.554688 152 246.945312 L 152.558594 246.332031 Z M 115.820312 277.359375 L 116.671875 277.644531 L 113.835938 279.914062 L 113.265625 279.628906 Z M 115.820312 277.359375 "/><path style=" stroke:none;fill-rule:nonzero;fill:#d9e0df;fill-opacity:1;" d="M 47.722656 277.644531 L 48.289062 278.210938 L 46.585938 281.046875 L 46.019531 280.765625 Z M 47.722656 277.644531 "/><path style=" stroke:none;fill-rule:nonzero;fill:#dde3e1;fill-opacity:1;" d="M 154.695312 238.484375 L 155.546875 238.769531 C 154.550781 239.648438 153.703125 240.117188 152.425781 240.472656 C 153.15625 239.722656 153.820312 239.070312 154.695312 238.484375 "/><path style=" stroke:none;fill-rule:nonzero;fill:#dbe2e1;fill-opacity:1;" d="M 102.484375 86.964844 C 103.015625 87.035156 103.015625 87.035156 103.621094 87.246094 L 104.1875 88.382812 C 104.5625 88.488281 104.941406 88.582031 105.324219 88.667969 L 105.890625 89.515625 L 105.375 89.25 C 104.730469 88.921875 104.730469 88.921875 103.902344 88.667969 L 103.902344 88.097656 L 103.050781 87.816406 L 103.050781 87.246094 Z M 102.484375 86.964844 "/><path style=" stroke:none;fill-rule:nonzero;fill:#e4e7e7;fill-opacity:1;" d="M 93.6875 143.714844 C 94.480469 143.765625 95.191406 143.816406 95.957031 143.996094 C 96.667969 144.582031 96.667969 144.582031 97.09375 145.132812 C 96.632812 145.003906 96.171875 144.875 95.710938 144.742188 L 94.933594 144.523438 C 94.257812 144.28125 94.257812 144.28125 93.6875 143.714844 "/><path style=" stroke:none;fill-rule:nonzero;fill:#d8dada;fill-opacity:1;" d="M 252.304688 82.140625 L 252.871094 82.140625 C 252.660156 82.957031 252.660156 82.957031 252.304688 83.84375 C 251.703125 84.234375 251.703125 84.234375 251.167969 84.410156 C 251.984375 82.460938 251.984375 82.460938 252.304688 82.140625 "/><path style=" stroke:none;fill-rule:nonzero;fill:#dae1e0;fill-opacity:1;" d="M 93.972656 79.300781 C 95.089844 79.777344 95.898438 80.503906 96.808594 81.289062 L 95.957031 81.574219 L 95.957031 81.003906 L 95.445312 80.757812 C 94.824219 80.4375 94.824219 80.4375 93.972656 79.871094 Z M 93.972656 79.300781 "/><path style=" stroke:none;fill-rule:nonzero;fill:#d9e0dd;fill-opacity:1;" d="M 274.152344 44.683594 L 274.722656 44.96875 L 273.019531 47.523438 L 272.734375 46.671875 C 273.015625 46.152344 273.015625 46.152344 273.425781 45.625 L 273.832031 45.089844 Z M 274.152344 44.683594 "/><path style=" stroke:none;fill-rule:nonzero;fill:#8d9090;fill-opacity:1;" d="M 27.574219 303.179688 L 28.140625 303.75 L 27.59375 303.980469 L 27.007812 304.316406 L 26.722656 305.167969 L 25.871094 305.167969 L 25.871094 304.316406 C 26.722656 303.695312 26.722656 303.695312 27.574219 303.179688 "/><path style=" stroke:none;fill-rule:nonzero;fill:#d2dad7;fill-opacity:1;" d="M 262.519531 63.695312 L 263.085938 63.980469 L 261.667969 66.25 L 261.101562 65.964844 Z M 262.519531 63.695312 "/><path style=" stroke:none;fill-rule:nonzero;fill:#d6dedb;fill-opacity:1;" d="M 136.535156 53.480469 L 137.101562 53.480469 C 137.582031 54.121094 137.582031 54.121094 137.953125 54.898438 C 137.863281 55.554688 137.863281 55.554688 137.667969 56.035156 C 137.273438 55.476562 136.898438 54.910156 136.535156 54.332031 Z M 136.535156 53.480469 "/><path style=" stroke:none;fill-rule:nonzero;fill:#c6cfce;fill-opacity:1;" d="M 130.007812 42.984375 L 130.574219 42.984375 L 131.710938 45.253906 L 130.859375 45.253906 C 130.007812 43.621094 130.007812 43.621094 130.007812 42.984375 "/><path style=" stroke:none;fill-rule:nonzero;fill:#d9e0dd;fill-opacity:1;" d="M 198.960938 43.550781 L 199.8125 43.832031 L 199.8125 45.535156 L 199.242188 45.820312 Z M 198.960938 43.550781 "/><path style=" stroke:none;fill-rule:nonzero;fill:#dbe1de;fill-opacity:1;" d="M 201.230469 20.566406 L 202.082031 21.417969 L 199.527344 21.703125 L 199.527344 21.132812 Z M 201.230469 20.566406 "/></g></svg>